<?xml version="1.0" standalone="no"?>
<!DOCTYPE svg PUBLIC "-//W3C//DTD SVG 20010904//EN"
 "http://www.w3.org/TR/2001/REC-SVG-20010904/DTD/svg10.dtd">
<svg version="1.0" xmlns="http://www.w3.org/2000/svg"
 width="512.000000pt" height="512.000000pt" viewBox="0 0 512.000000 512.000000"
 preserveAspectRatio="xMidYMid meet">

<g transform="translate(0.000000,512.000000) scale(0.100000,-0.100000)"
fill="#000000" stroke="none">
<path d="M2090 3576 c37 -77 124 -255 194 -394 l126 -252 -2 -505 -3 -505
-243 275 -243 275 -337 0 c-193 0 -331 -4 -322 -9 8 -5 128 -55 265 -111 138
-56 260 -111 272 -123 12 -12 141 -175 288 -362 l267 -340 -6 -95 c-3 -52 -13
-248 -21 -435 -9 -187 -20 -421 -25 -520 -6 -99 -10 -213 -10 -252 l0 -73 246
0 246 0 -7 88 c-9 129 -43 783 -51 962 l-6 155 212 260 212 260 219 5 219 5
160 334 c88 184 159 336 157 337 -2 2 -93 -87 -202 -196 l-200 -200 -235 -1
-235 0 -170 -204 c-93 -112 -173 -204 -177 -204 -5 -1 -8 236 -8 525 l0 526
170 221 c93 121 168 222 167 224 -2 2 -90 -29 -196 -69 l-193 -72 -66 69 c-37
39 -171 176 -298 306 l-232 237 68 -142z"/>
</g>
</svg>
